<svg width="24" height="24" xmlns="http://www.w3.org/2000/svg"><path fill-rule="evenodd" clip-rule="evenodd" d="M20.806 6.009l3.07 5.5c.075.152.117.318.124.487v6a1.5 1.5 0 01-1.5 1.5h-21a1.5 1.5 0 01-1.5-1.5v-6c.013-.169.057-.334.13-.487L3.2 6.005A1.955 1.955 0 014.9 5h14.206c.707.004 1.357.39 1.7 1.009zm-15.758.987c-.09 0-.174.05-.218.129l-2.205 4a.251.251 0 00.219.371H6.5a1.5 1.5 0 011.5 1.5 1.5 1.5 0 001.5 1.5h5a1.5 1.5 0 001.5-1.5c0-.398.159-.779.439-1.061a1.49 1.49 0 011.061-.439h3.654a.25.25 0 00.218-.372l-2.241-4.016a.248.248 0 00-.218-.128l-13.865.016z" fill="#CCC"/></svg>